# xmcd
#
# Track frame offsets:
#	150
#	22242
#	38061
#	59345
#	73950
#	95636
#	117319
#	136803
#	157148
#	184373
#	205751
#	224489
#	244710
#	265495
#
# Disc length: 3847 seconds
#
# Revision: 2
# Processed by: cddbd v1.5.2PL0 Copyright (c) Steve Scherf et al.
# Submitted via: audiograbber 1.83.01
#
DISCID=e00f050e
DTITLE=Various Artist - 2 Love Forever R&B (Popular Lovesong Duets)
DYEAR=2001
DGENRE=R&B
TTITLE0=Freddie Jackson and Melba Moore - A Little Bit More
TTITLE1=Peabo Bryson and Roberta Flack - Tonight I Celebrate My Love
TTITLE2=Phill Perry and Kevin Senlin - Love Is Like A Statue
TTITLE3=Ashford and Simpson - Tonight We Escape
TTITLE4=Melba Moore and Kashif - I'm In Love
TTITLE5=Freddie Jackson and D'Atra Hicks - Live My Life Without You
TTITLE6=David Grant and Jaki Graham - Could It Be I'm Falling In Love
TTITLE7=Melba Moore and Lillo Thomas - (Can't Take Half Of You) All Of You
TTITLE8=Peabo Bryson and Natalie Cole - What You Want To Do For Love
TTITLE9=Dennis Taylor and India Tornyenu - Should I
TTITLE10=Melba Moore and Kashif - Love The One I'm With (A Lot Of Love)
TTITLE11=Peabo Bryson and Jasmine Guy - Like I Need You
TTITLE12=Charles and Eddie - Would I Lie To You?
TTITLE13=Ashford and Simpson - Solid
EXTD=
EXTT0=
EXTT1=
EXTT2=
EXTT3=
EXTT4=
EXTT5=
EXTT6=
EXTT7=
EXTT8=
EXTT9=
EXTT10=
EXTT11=
EXTT12=
EXTT13=
PLAYORDER=
